<mxfile host="app.diagrams.net" modified="2022-04-01T03:14:57.999Z" agent="5.0 (Windows NT 10.0; Win64; x64) AppleWebKit/537.36 (KHTML, like Gecko) Chrome/99.0.4844.74 Safari/537.36 Edg/99.0.1150.55" etag="o_iVAhsoZtezjnSUj24i" version="17.2.5" type="github">
  <diagram id="TnWFZItgp1ETXkeKYBAi" name="Page-1">
    <mxGraphModel dx="1038" dy="579" grid="1" gridSize="10" guides="1" tooltips="1" connect="1" arrows="1" fold="1" page="1" pageScale="1" pageWidth="850" pageHeight="1100" math="0" shadow="0">
      <root>
        <mxCell id="0" />
        <mxCell id="1" parent="0" />
        <mxCell id="CC9f08D9eJlRWeVGv4Ex-3" value="" style="edgeStyle=orthogonalEdgeStyle;rounded=0;orthogonalLoop=1;jettySize=auto;html=1;" edge="1" parent="1" source="CC9f08D9eJlRWeVGv4Ex-1" target="CC9f08D9eJlRWeVGv4Ex-2">
          <mxGeometry relative="1" as="geometry" />
        </mxCell>
        <mxCell id="CC9f08D9eJlRWeVGv4Ex-1" value="client request" style="rounded=1;whiteSpace=wrap;html=1;" vertex="1" parent="1">
          <mxGeometry x="170" y="40" width="120" height="60" as="geometry" />
        </mxCell>
        <mxCell id="CC9f08D9eJlRWeVGv4Ex-5" value="yes" style="edgeStyle=orthogonalEdgeStyle;rounded=0;orthogonalLoop=1;jettySize=auto;html=1;" edge="1" parent="1" source="CC9f08D9eJlRWeVGv4Ex-2" target="CC9f08D9eJlRWeVGv4Ex-4">
          <mxGeometry relative="1" as="geometry" />
        </mxCell>
        <mxCell id="CC9f08D9eJlRWeVGv4Ex-10" value="no" style="edgeStyle=orthogonalEdgeStyle;rounded=0;orthogonalLoop=1;jettySize=auto;html=1;" edge="1" parent="1" source="CC9f08D9eJlRWeVGv4Ex-2" target="CC9f08D9eJlRWeVGv4Ex-6">
          <mxGeometry relative="1" as="geometry" />
        </mxCell>
        <mxCell id="CC9f08D9eJlRWeVGv4Ex-2" value="card placed" style="rhombus;whiteSpace=wrap;html=1;" vertex="1" parent="1">
          <mxGeometry x="190" y="130" width="80" height="80" as="geometry" />
        </mxCell>
        <mxCell id="CC9f08D9eJlRWeVGv4Ex-4" value="request data server for card props&lt;br&gt;invoke agents create for card" style="rounded=1;whiteSpace=wrap;html=1;" vertex="1" parent="1">
          <mxGeometry x="360" y="140" width="120" height="60" as="geometry" />
        </mxCell>
        <mxCell id="CC9f08D9eJlRWeVGv4Ex-12" value="yes" style="edgeStyle=orthogonalEdgeStyle;rounded=0;orthogonalLoop=1;jettySize=auto;html=1;" edge="1" parent="1" source="CC9f08D9eJlRWeVGv4Ex-6" target="CC9f08D9eJlRWeVGv4Ex-11">
          <mxGeometry relative="1" as="geometry" />
        </mxCell>
        <mxCell id="CC9f08D9eJlRWeVGv4Ex-15" value="no" style="edgeStyle=orthogonalEdgeStyle;rounded=0;orthogonalLoop=1;jettySize=auto;html=1;" edge="1" parent="1" source="CC9f08D9eJlRWeVGv4Ex-6" target="CC9f08D9eJlRWeVGv4Ex-13">
          <mxGeometry relative="1" as="geometry" />
        </mxCell>
        <mxCell id="CC9f08D9eJlRWeVGv4Ex-6" value="create char" style="rhombus;whiteSpace=wrap;html=1;" vertex="1" parent="1">
          <mxGeometry x="190" y="250" width="80" height="80" as="geometry" />
        </mxCell>
        <mxCell id="CC9f08D9eJlRWeVGv4Ex-11" value="request data server for card props&lt;br&gt;invoke agents create for card" style="rounded=1;whiteSpace=wrap;html=1;" vertex="1" parent="1">
          <mxGeometry x="365" y="260" width="120" height="60" as="geometry" />
        </mxCell>
        <mxCell id="CC9f08D9eJlRWeVGv4Ex-16" value="yes" style="edgeStyle=orthogonalEdgeStyle;rounded=0;orthogonalLoop=1;jettySize=auto;html=1;" edge="1" parent="1" source="CC9f08D9eJlRWeVGv4Ex-13" target="CC9f08D9eJlRWeVGv4Ex-14">
          <mxGeometry relative="1" as="geometry">
            <Array as="points">
              <mxPoint x="320" y="420" />
              <mxPoint x="320" y="420" />
            </Array>
          </mxGeometry>
        </mxCell>
        <mxCell id="CC9f08D9eJlRWeVGv4Ex-20" value="no" style="edgeStyle=orthogonalEdgeStyle;rounded=0;orthogonalLoop=1;jettySize=auto;html=1;" edge="1" parent="1" source="CC9f08D9eJlRWeVGv4Ex-13" target="CC9f08D9eJlRWeVGv4Ex-18">
          <mxGeometry relative="1" as="geometry" />
        </mxCell>
        <mxCell id="CC9f08D9eJlRWeVGv4Ex-13" value="deck coply" style="rhombus;whiteSpace=wrap;html=1;" vertex="1" parent="1">
          <mxGeometry x="190" y="380" width="80" height="80" as="geometry" />
        </mxCell>
        <mxCell id="CC9f08D9eJlRWeVGv4Ex-14" value="copy the deck against the user" style="rounded=1;whiteSpace=wrap;html=1;" vertex="1" parent="1">
          <mxGeometry x="365" y="390" width="120" height="60" as="geometry" />
        </mxCell>
        <mxCell id="CC9f08D9eJlRWeVGv4Ex-17" value="yes" style="edgeStyle=orthogonalEdgeStyle;rounded=0;orthogonalLoop=1;jettySize=auto;html=1;" edge="1" parent="1" source="CC9f08D9eJlRWeVGv4Ex-18" target="CC9f08D9eJlRWeVGv4Ex-19">
          <mxGeometry relative="1" as="geometry" />
        </mxCell>
        <mxCell id="CC9f08D9eJlRWeVGv4Ex-18" value="deck replace" style="rhombus;whiteSpace=wrap;html=1;" vertex="1" parent="1">
          <mxGeometry x="190" y="510" width="80" height="80" as="geometry" />
        </mxCell>
        <mxCell id="CC9f08D9eJlRWeVGv4Ex-19" value="replaced card in the deck against the user" style="rounded=1;whiteSpace=wrap;html=1;" vertex="1" parent="1">
          <mxGeometry x="365" y="520" width="120" height="60" as="geometry" />
        </mxCell>
      </root>
    </mxGraphModel>
  </diagram>
</mxfile>
